PathFileType   4   (X/Y/Z)
DataRate	CameraRate	NumFrames	NumMarkers	Units	OrigDataRate	OrigDataStartFrame	OrigNumFrames
120.0	120.0	5	37	mm	120.0	1	125
Frame#	Time	midhip	hip_r	hip_l	knee_r	knee_l	ankle_r	ankle_l	midasis	asis_r	asis_l	psis_r	psis_l	epicondLat_r	epicondLat_l	epicondMed_r	epicondMed_l	malleolusLat_r	malleolusLat_l	malleolusMedv_r	malleolusMedv_l	neck	subclavicle_r	subclavicle_l	sternalnotch	xyphoidprocess	thighwand_r	thighwand_l	upperleg1_r	upperleg1_l	upperleg2_r	upperleg2_l	shankwand_r	shankwand_l	lowerleg1_r	lowerleg1_l	toe_r	toe_l
 	 	X1	Y1	Z1	X2	Y2	Z2	X3	Y3	Z3	X4	Y4	Z4	X5	Y5	Z5	X6	Y6	Z6	X7	Y7	Z7	X8	Y8	Z8	X9	Y9	Z9	X10	Y10	Z10	X11	Y11	Z11	X12	Y12	Z12	X13	Y13	Z13	X14	Y14	Z14	X15	Y15	Z15	X16	Y16	Z16	X17	Y17	Z17	X18	Y18	Z18	X19	Y19	Z19	X20	Y20	Z20	X21	Y21	Z21	X22	Y22	Z22	X23	Y23	Z23	X24	Y24	Z24	X25	Y25	Z25	X26	Y26	Z26	X27	Y27	Z27	X28	Y28	Z28	X29	Y29	Z29	X30	Y30	Z30	X31	Y31	Z31	X32	Y32	Z32	X33	Y33	Z33	X34	Y34	Z34	X35	Y35	Z35	X36	Y36	Z36	X37	Y37	Z37

	1	0.12500	48.176	765.991	-286.383	17.995	765.618	-210.143	38.906	772.885	-364.189	-21.623	384.415	-178.450	126.854	419.177	-333.842	-292.011	155.043	-213.619	193.578	59.153	-313.296	153.432	843.373	-266.703	137.100	837.698	-146.390	169.765	849.049	-387.016	-93.923	909.077	-259.253	-91.377	910.905	-312.831	-28.690	391.039	-107.609	138.660	416.068	-404.292	11.371	381.415	-248.711	97.079	413.989	-257.810	-303.747	163.403	-177.917	181.176	54.729	-350.537	-273.841	156.786	-247.388	180.903	75.490	-273.347	-66.951	1331.013	-284.835	65.164	1272.331	-248.081	65.433	1275.208	-328.775	48.728	1267.474	-300.790	105.850	1197.783	-301.976	151.795	545.303	-88.928	260.345	632.075	-325.050	118.765	565.064	-118.600	215.201	638.558	-341.770	94.681	491.938	-123.636	208.939	563.465	-337.563	-132.089	184.016	-160.260	164.231	154.618	-422.585	-153.505	221.168	-174.425	157.592	169.970	-378.207	-265.133	55.312	-222.909	298.523	49.555	-317.777
	2	0.13333	57.774	767.298	-287.967	27.952	766.387	-211.557	48.176	774.370	-365.660	-2.619	382.852	-175.796	131.310	420.014	-335.241	-277.768	160.425	-212.532	194.287	59.083	-313.554	162.898	844.809	-268.370	147.177	838.604	-148.573	178.620	851.015	-388.166	-84.515	909.514	-259.356	-82.110	911.830	-313.071	-10.174	390.049	-105.062	142.771	416.652	-405.736	31.999	379.716	-245.732	117.423	407.257	-255.589	-289.324	168.814	-176.778	181.493	54.621	-350.657	-259.903	161.931	-246.196	181.315	75.466	-273.542	-57.626	1331.811	-285.432	74.664	1273.306	-248.769	75.495	1276.221	-328.965	58.525	1268.447	-301.240	115.895	1198.877	-302.177	167.026	548.620	-86.780	268.253	632.095	-327.291	134.151	566.821	-116.290	217.063	636.915	-346.152	111.788	493.077	-120.928	216.847	564.066	-340.014	-117.142	185.118	-158.828	164.939	154.524	-423.194	-138.068	222.912	-173.071	158.057	169.957	-378.480	-253.765	59.429	-221.195	298.624	49.375	-317.724
	3	0.14167	67.105	768.435	-289.340	37.634	767.075	-212.797	57.093	775.737	-366.961	17.107	381.509	-173.482	135.446	420.682	-336.664	-262.847	165.871	-211.652	194.865	59.018	-313.817	172.118	846.051	-269.938	157.049	839.343	-150.553	187.187	852.759	-389.322	-75.317	909.971	-259.454	-73.007	912.744	-313.243	8.924	389.145	-102.863	146.524	417.107	-407.211	52.761	376.924	-241.089	121.812	409.272	-259.113	-274.078	174.098	-175.757	181.725	54.523	-350.796	-245.709	166.554	-245.268	182.132	75.770	-273.819	-48.226	1332.683	-286.773	84.203	1274.281	-249.045	85.313	1277.111	-329.170	68.094	1269.411	-301.630	125.718	1199.848	-302.195	182.023	552.180	-84.706	275.897	631.620	-329.513	149.247	569.261	-114.370	227.046	637.915	-346.949	128.535	494.193	-117.819	224.812	564.191	-341.930	-101.448	186.342	-158.286	165.576	154.439	-423.831	-122.454	225.126	-173.133	158.900	169.904	-379.098	-240.313	63.927	-219.082	298.647	49.227	-317.771
	4	0.15000	76.022	769.429	-290.565	47.072	767.673	-213.812	65.708	776.935	-368.044	37.445	380.470	-171.484	139.379	421.208	-338.020	-247.162	171.195	-210.980	195.296	58.961	-314.070	181.139	847.058	-271.365	166.745	839.905	-152.245	195.533	854.212	-390.485	-66.297	910.448	-259.574	-64.049	913.644	-313.383	28.571	388.398	-100.981	149.995	417.448	-408.628	73.822	374.255	-237.063	125.077	411.244	-260.981	-257.983	179.100	-174.888	181.879	54.451	-350.947	-230.504	171.570	-244.719	182.757	76.388	-274.160	-38.700	1333.572	-288.312	93.975	1275.146	-249.375	94.702	1277.867	-329.648	77.461	1270.374	-301.955	135.244	1200.645	-302.686	196.811	555.995	-82.847	283.252	630.570	-331.762	163.581	571.827	-113.021	235.315	637.875	-348.664	144.934	495.620	-115.291	231.324	563.642	-343.813	-84.979	187.669	-158.451	166.238	154.379	-424.443	-105.399	228.096	-173.885	159.862	169.962	-380.100	-224.849	68.542	-216.662	298.625	49.089	-317.890
	5	0.15833	84.649	770.286	-291.552	56.231	768.178	-214.626	74.071	777.936	-368.920	58.225	379.809	-169.774	143.193	421.631	-339.226	-230.645	176.180	-210.489	195.605	58.910	-314.307	189.970	847.798	-272.614	176.207	840.270	-153.580	203.734	855.326	-391.647	-57.416	910.952	-259.738	-55.217	914.526	-313.527	48.682	387.890	-99.376	153.262	417.694	-409.904	95.554	372.734	-234.621	127.729	411.908	-264.290	-241.030	183.653	-174.177	181.982	54.413	-351.109	-214.083	177.526	-244.603	182.750	76.985	-274.472	-29.090	1334.504	-289.502	103.067	1276.044	-249.518	103.466	1278.621	-330.248	86.673	1271.326	-302.215	143.947	1201.354	-303.080	211.445	560.068	-81.337	290.292	628.955	-334.047	177.555	574.573	-111.984	242.751	637.055	-350.297	161.479	497.647	-113.587	236.943	562.401	-346.259	-67.726	189.066	-159.095	166.982	154.359	-424.991	-87.106	230.760	-174.073	160.637	170.280	-381.051	-207.544	73.024	-214.058	298.584	48.955	-318.061
